<svg width="38" height="30" fill="none" xmlns="http://www.w3.org/2000/svg"><path d="M8.089 1c-3.94 0-7.037 3.269-7.037 7.107v18.761c0 1.137.985 2.132 2.11 2.132 1.127 0 2.112-.995 2.112-2.132V14.645c.845.426 1.83.568 2.815.568 3.94 0 7.037-3.269 7.037-7.106C15.126 4.269 12.03 1 8.09 1ZM30.186 1c3.94 0 7.037 3.269 7.037 7.107v18.761c0 1.137-.985 2.132-2.111 2.132C33.986 29 33 28.005 33 26.868V14.645c-.845.426-1.83.568-2.815.568-3.941 0-7.038-3.269-7.038-7.106C23.148 4.269 26.245 1 30.186 1Z" stroke="#C8102E" stroke-width="1.5" stroke-miterlimit="10" stroke-linecap="round" stroke-linejoin="round"/></svg>