<svg width="54" height="26" fill="none" xmlns="http://www.w3.org/2000/svg"><path d="M1.742 2.876h11.389M7.503 1v5.091M7.503 13.46a2.688 2.688 0 0 1-2.68-2.68V6.09h5.36v4.69c-.134 1.474-1.206 2.68-2.68 2.68ZM10.049 9.708h17.015M52.386 2.876H41.132M46.759 1v5.091M46.76 13.46a2.688 2.688 0 0 0 2.68-2.68V6.09h-5.36v4.69a2.688 2.688 0 0 0 2.68 2.68ZM44.08 9.708H27.065M36.577 9.708H17.552v9.379h19.025V9.708ZM17.551 19.087l-3.081 5.895M36.576 19.087l3.082 5.895" stroke="#C8102E" stroke-width="1.5" stroke-miterlimit="10" stroke-linecap="round" stroke-linejoin="round"/></svg>